<?xml version="1.0" encoding="UTF-8"?>
<svg viewBox="0 0 1460.61 1717.01" xmlns="http://www.w3.org/2000/svg">
  <g opacity="0.1">
    <!-- Path 1: pf4e39c0 - Green circle background -->
    <path d="M729.933 1717.01C1030.71 1717.01 1274.53 1473.19 1274.53 1172.41C1274.53 871.641 1030.71 627.816 729.933 627.816C429.16 627.816 185.335 871.641 185.335 1172.41C185.335 1473.19 429.16 1717.01 729.933 1717.01Z" fill="#00C852"/>
    
    <!-- Path 2: p186757e0 - Orange organic shape -->
    <path d="M1323.92 989.032C1320.34 988.015 1316.78 988.176 1314.42 990.062C1301.99 999.98 1283.13 992.362 1273.06 986.984C1268.79 984.704 1264.27 984.589 1260.98 986.405C1247.61 993.785 1232.31 989.721 1223.38 986.063C1218.71 984.151 1214.2 984.949 1211.26 987.596C1199.83 997.868 1184.5 992.478 1174.87 987.21C1169.51 984.273 1164.06 984.672 1160.72 987.924C1157.11 991.441 1152.88 993.443 1148.52 994.545C1146.05 995.086 1141.65 995.234 1139.56 992.407C1137.21 989.219 1143.06 984.64 1143.06 984.64H1143.04C1178.61 952.904 1207.18 925.109 1225.33 908.957C1298.51 843.81 1431.4 805.376 1431.4 805.376C1394.22 800.365 1310.38 803.856 1285.96 805.021C1282.22 805.202 1278.94 806.477 1277.4 809.001C1269.28 822.281 1248.78 821.096 1237.36 819.235C1232.53 818.442 1228.23 819.769 1225.78 822.532C1215.87 833.718 1200.01 834.755 1190.28 834.143C1185.2 833.828 1181.25 836.004 1179.43 839.43C1172.39 852.716 1156.02 852.51 1145.06 850.617C1138.95 849.561 1133.97 851.66 1132 855.782C1130.01 859.916 1126.98 862.879 1123.61 865.242C1121.21 866.582 1118.4 867.374 1116.79 866.111C1114.35 864.205 1118.09 859.813 1118.09 859.813H1118.04C1156.01 811.932 1186.05 770.084 1204.45 746.495C1270.07 662.362 1398.04 587.388 1398.04 587.388C1360.5 593.01 1277.49 620.09 1253.33 628.121C1249.63 629.351 1246.51 631.521 1245.25 634.419C1238.63 649.65 1218.11 654.286 1206.55 655.697C1201.64 656.296 1197.52 658.801 1195.39 662.175C1186.76 675.873 1171.09 681.36 1161.35 683.518C1156.26 684.645 1152.57 687.884 1151.14 691.735C1145.6 706.67 1129.29 711.094 1118.18 712.337C1111.99 713.032 1107.27 716.484 1105.76 721.057C1101.24 734.78 1087.25 742.167 1077.87 745.69C1072.69 747.634 1069.54 751.511 1069.2 755.858C1068.38 766.452 1062.11 775.204 1054.47 782.211C1048.66 786.745 1039.42 789.952 1032.59 785.895C1025.47 781.657 1029.88 770.471 1031.31 767.302C1031.4 767.109 1031.49 766.922 1031.57 766.736C1031.63 766.613 1031.73 766.401 1031.73 766.401H1031.72C1063.67 697.042 1086.26 634.438 1099.85 602.064C1138.89 509.032 1241.4 414.434 1241.4 414.434C1206.47 426.226 1133.59 466.566 1112.42 478.461C1109.17 480.277 1106.77 482.924 1106.41 485.957C1104.47 501.916 1085.85 509.882 1074.99 513.199C1070.39 514.602 1067.11 517.739 1066.04 521.39C1061.69 536.189 1048.04 544.175 1039.18 547.91C1034.55 549.862 1031.91 553.642 1031.66 557.635C1030.68 573.123 1016.1 580.175 1005.63 583.259C999.804 584.973 996.227 589.133 996.111 593.847C995.77 607.989 984.331 617.54 976.224 622.55C971.753 625.313 969.829 629.628 970.794 633.923C972.634 642.153 970.845 649.869 967.403 656.747C965.048 661.068 959.142 669.878 950.932 667.849C940.168 665.183 944.119 651.556 944.119 651.556H944.061C966.683 556.636 973.065 475.557 971.817 431.694C969.153 338.507 1016.11 270.603 1016.11 270.603C983.868 281.738 946.409 338.037 942.781 344.721C941.365 347.329 939.429 349.133 937.588 350.369C934.526 352.423 932.229 355.128 932.017 358.29C930.762 376.999 918.57 387.876 911.679 392.583C908.636 394.657 907.137 397.645 907.027 400.814C906.217 424.268 892.86 436.917 885.641 442.062C882.681 444.174 881.337 447.214 881.33 450.363C881.311 473.586 868.617 487.252 861.038 493.338C857.917 495.849 857.345 499.237 857.306 502.791C857.19 513.405 856.328 521.686 855.035 528.294C853.903 532.68 850.1 542.513 839.947 539.822C834.601 538.405 829.943 534.238 826.224 529.505C807.585 498.857 812.97 466.85 816.148 454.575C817.049 451.097 815.988 447.51 813.729 444.574C791.03 415.066 796.107 380.895 799.053 368.388C799.819 365.13 799.015 361.839 797.085 358.999C779.578 333.29 782.229 301.966 784.468 288.564C785.105 284.765 784.082 280.817 781.154 278.016C759.845 257.659 766.491 228.112 770.294 216.43C771.291 213.364 770.937 210.06 769.168 207.291C738.98 160.105 730.661 0 730.661 0C730.661 0 722.348 160.105 692.141 207.278C690.372 210.048 690.018 213.351 691.015 216.417C694.824 228.099 701.464 257.646 680.155 278.003C677.227 280.798 676.211 284.745 676.841 288.551C679.08 301.953 681.731 333.277 664.224 358.986C662.294 361.826 661.49 365.117 662.256 368.375C665.202 380.882 670.279 415.053 647.58 444.561C645.322 447.497 644.26 451.085 645.161 454.562C648.146 466.109 653.113 495.134 638.167 524.056C634.114 530.76 628.059 537.857 620.699 539.809C610.546 542.501 606.744 532.667 605.611 528.281C604.312 521.674 603.456 513.392 603.34 502.779C603.302 499.224 602.729 495.836 599.609 493.325C592.029 487.232 579.335 473.573 579.316 450.35C579.316 447.201 577.965 444.162 575.005 442.049C567.793 436.904 554.43 424.255 553.619 400.801C553.51 397.632 552.01 394.644 548.967 392.571C542.077 387.869 529.884 376.986 528.63 358.277C528.417 355.115 526.12 352.417 523.058 350.356C521.218 349.12 519.281 347.317 517.866 344.708C514.243 338.024 476.779 281.725 444.538 270.59C444.538 270.59 491.487 338.494 488.829 431.681C487.575 475.544 493.957 556.624 516.585 651.537H516.527C516.527 651.537 520.478 665.17 509.714 667.836C501.504 669.871 495.598 661.055 493.243 656.734C489.807 649.856 488.012 642.147 489.852 633.91C490.811 629.615 488.894 625.3 484.422 622.537C476.315 617.527 464.876 607.976 464.535 593.834C464.419 589.12 460.842 584.96 455.013 583.247C444.551 580.168 429.966 573.11 428.988 557.622C428.737 553.629 426.099 549.849 421.466 547.897C412.607 544.162 398.961 536.177 394.611 521.377C393.537 517.726 390.255 514.59 385.655 513.186C374.801 509.869 356.175 501.903 354.238 485.944C353.872 482.911 351.472 480.271 348.229 478.448C327.049 466.553 254.165 426.213 219.242 414.422C219.242 414.422 321.76 509.013 360.801 602.051C374.383 634.419 396.979 697.022 428.923 766.381H428.917C428.917 766.381 429.02 766.6 429.078 766.723C429.168 766.916 429.251 767.096 429.335 767.289C430.77 770.458 435.177 781.644 428.055 785.882C421.228 789.939 411.989 786.732 406.179 782.198C398.536 775.191 392.263 766.433 391.446 755.846C391.111 751.499 387.959 747.615 382.779 745.677C373.392 742.154 359.411 734.767 354.888 721.044C353.383 716.471 348.66 713.019 342.464 712.324C331.353 711.081 315.043 706.65 309.503 691.722C308.075 687.871 304.382 684.632 299.293 683.505C289.552 681.347 273.885 675.86 265.257 662.163C263.128 658.782 259.004 656.283 254.101 655.684C242.539 654.274 222.022 649.637 215.401 634.406C214.146 631.515 211.02 629.338 207.32 628.108C183.154 620.071 100.15 592.997 62.6085 587.375C62.6085 587.375 190.573 662.356 256.198 746.482C274.593 770.065 304.646 811.912 342.606 859.8H342.561C342.561 859.8 346.293 864.192 343.861 866.099C342.246 867.361 339.434 866.569 337.041 865.229C333.663 862.866 330.632 859.903 328.651 855.769C326.676 851.647 321.696 849.548 315.59 850.604C304.633 852.504 288.252 852.71 281.214 839.418C279.399 835.991 275.449 833.815 270.366 834.13C260.638 834.736 244.772 833.699 234.864 822.519C232.419 819.756 228.127 818.436 223.283 819.222C211.862 821.083 191.364 822.268 183.251 808.988C181.707 806.464 178.425 805.189 174.687 805.009C150.264 803.843 66.4302 800.352 29.2422 805.363C29.2422 805.363 162.141 843.797 235.314 908.944C253.458 925.096 282.037 952.891 317.61 984.627H317.584C317.584 984.627 323.439 989.206 321.084 992.394C319 995.221 314.593 995.073 312.128 994.532C307.766 993.431 303.539 991.421 299.93 987.912C296.584 984.659 291.141 984.26 285.775 987.197C276.15 992.465 260.818 997.855 249.391 987.583C246.445 984.936 241.941 984.138 237.27 986.05C228.34 989.708 213.033 993.772 199.67 986.392C196.376 984.569 191.853 984.692 187.587 986.971C177.518 992.349 158.654 999.967 146.224 990.05C143.862 988.163 140.311 988.002 136.727 989.019C113.321 995.678 33.1862 1019 4.1604e-05 1035.52C4.1604e-05 1035.52 138.934 1029.5 231.319 1067.57C310.797 1100.32 429.084 1215.68 730.307 1229.21C1033.96 1222.97 1149.82 1100.32 1229.3 1067.57C1321.68 1029.49 1460.61 1035.52 1460.61 1035.52C1427.43 1019 1347.29 995.672 1323.88 989.019" fill="#FF6D01"/>
    
    <!-- Path 3: p14ee8d80 - Turquoise diamond/star -->
    <path d="M1198.73 1037.73L1157.34 937.436L908.359 995.161L907.776 993.995L966.668 745.602L865.794 704.203L730.519 922.275L731.103 922.859H729.936L730.519 922.275L595.828 703.62L494.954 745.019L553.263 995.161H553.846L553.263 995.744V995.161L303.703 935.686L261.722 1036.56L479.211 1171.83V1172.42L261.139 1307.11L302.537 1407.4L552.096 1349.09L552.679 1350.26L493.788 1599.23L594.078 1640.63L729.353 1422.56H729.936H729.353L864.628 1641.22L964.918 1599.82L906.61 1350.26L907.193 1349.67L1156.75 1409.15L1198.73 1308.28L980.662 1173V1172.42L1198.73 1037.73Z" fill="#1EE9B6"/>
    
    <!-- Path 4: p29d3d600 - Green geometric pattern -->
    <path d="M1133.43 1002.16L1137.51 1000.41V1001.58H1138.68L1140.42 1005.66L1139.26 1009.74L1142.17 1008.58H1143.34L1146.26 1006.83L1142.76 1005.08L1141.01 1001H1142.17V999.829L1146.26 998.08L1150.34 999.246L1149.17 996.331V995.165L1147.42 992.249L1145.67 995.748L1141.59 997.497V996.331H1140.42L1138.68 992.249L1139.84 988.168L1136.93 989.334H1135.76L1132.84 991.083L1136.34 992.832L1138.09 996.914H1136.93V998.08L1132.84 999.829L1129.93 998.663C1127.01 996.331 1121.77 996.331 1121.77 996.331L1003.98 1023.74L1017.39 1016.16L949.757 1036.56H947.424H945.675C945.675 1036.56 943.926 1036.56 942.76 1035.98C941.594 1035.98 936.346 1034.23 931.098 1040.64L927.6 1041.81C927.6 1041.81 921.769 1037.73 920.603 1042.98H919.436C919.436 1042.98 918.27 1041.81 915.938 1042.39L914.772 1040.06C914.772 1040.06 913.606 1038.9 912.439 1038.9C911.856 1038.9 911.273 1040.06 911.273 1041.23V1042.98V1044.73L906.609 1047.06L905.442 1044.14C905.442 1044.14 904.276 1042.98 903.11 1042.98C902.527 1042.98 901.944 1044.14 901.944 1045.31L903.11 1048.23L861.128 1065.72L859.379 1062.22L853.548 1064.55L851.216 1058.72L845.385 1068.05L841.886 1069.8L840.72 1067.47L838.388 1071.55L837.222 1069.22L834.89 1073.3L755.59 1107.12L721.772 1027.82L722.938 1023.15L720.605 1024.32L721.772 1019.65L719.439 1020.82L717.69 1017.32L720.022 1006.83L714.192 1009.16L711.859 1003.33L708.361 1005.08L690.868 963.095L693.784 961.929C693.784 961.929 694.95 960.763 694.95 959.597C694.95 959.013 693.784 958.43 692.618 958.43L689.702 959.597L687.37 954.932V952.6L689.702 952.017C690.285 952.017 690.868 950.85 690.868 949.684C690.868 949.101 689.702 948.518 688.536 948.518L686.204 949.684L682.705 947.935V946.769C685.038 942.104 678.041 940.938 678.041 940.938L676.291 938.023C676.874 929.859 672.21 926.944 671.044 926.944C669.877 926.944 668.711 925.778 668.711 925.778L668.128 924.612L666.962 922.862L632.56 861.056L637.225 875.633L571.92 774.177C571.92 774.177 568.421 770.678 564.34 770.095L561.424 768.346L559.675 764.264H560.841V763.098L564.923 761.349L569.004 762.515L567.838 759.599V758.433L566.089 755.518L564.34 759.016L560.258 760.766V759.599H559.092L557.343 755.518L558.509 751.436L555.593 752.603H554.427L551.512 754.352L555.01 756.101L556.759 760.183H555.593V761.349L551.512 763.098L547.43 761.932L548.596 764.847V766.013L550.346 768.929L552.095 765.43L556.176 763.681V764.847H557.343L559.092 768.929L557.926 773.01C556.176 775.926 556.176 780.007 556.176 780.007L583.581 897.79L576.001 884.379L596.409 952.017V954.349V956.098C596.409 956.098 596.409 957.847 595.826 959.013C595.826 960.18 594.077 965.427 600.491 970.675L601.657 974.174C601.657 974.174 597.575 980.004 602.823 981.171V982.337C602.823 982.337 601.657 983.503 602.24 985.835L599.908 987.001C599.908 987.001 598.741 988.168 598.741 989.334C598.741 989.917 599.908 990.5 601.074 990.5H602.823H604.572L606.905 995.165L603.989 996.331C603.989 996.331 602.823 997.497 602.823 998.663C602.823 999.246 603.989 999.829 605.155 999.829L608.071 998.663L625.563 1040.64L622.065 1042.39L624.397 1048.23L618.566 1050.56L627.895 1056.39L629.645 1059.89L627.312 1061.05L631.394 1063.39L629.062 1064.55L633.143 1066.88L667.545 1146.77L587.663 1180.58L582.998 1179.42L584.164 1181.75L579.5 1181.17L580.666 1183.5L577.167 1185.25L566.672 1182.92L569.004 1188.75L563.173 1191.08L564.923 1194.58L522.941 1212.07L521.775 1209.16C521.775 1209.16 520.608 1207.99 519.442 1207.99C518.859 1207.99 518.276 1209.16 518.276 1210.32L519.442 1213.24L514.778 1215.57H512.445L511.862 1213.24C511.862 1212.65 510.696 1212.07 509.53 1212.07C508.947 1212.07 508.364 1213.24 508.364 1214.4L509.53 1216.74L507.781 1220.23H506.614C501.95 1217.9 500.784 1224.9 500.784 1224.9L497.868 1226.65C489.705 1226.06 486.79 1230.73 486.79 1231.9C486.79 1233.06 485.624 1234.23 485.624 1234.23L483.874 1234.81L482.125 1235.98L420.318 1270.38L434.895 1265.71L333.439 1331.02C333.439 1331.02 330.524 1333.94 329.358 1337.43L327.608 1340.93L323.527 1342.68V1341.52H322.361L320.611 1337.43L321.777 1333.35L318.862 1334.52H317.696L314.781 1336.27L318.279 1338.02L320.028 1342.1H318.862V1343.26L314.781 1345.01L310.699 1343.85L311.865 1346.76V1347.93L313.614 1350.84L315.364 1347.35L319.445 1345.6V1346.76H320.611L322.361 1350.84L321.194 1354.93L324.11 1353.76H325.276L328.191 1352.01L324.693 1350.26L322.944 1346.18H324.11V1345.01L328.191 1343.26L331.107 1344.43C334.022 1346.76 339.27 1346.76 339.27 1346.76L457.052 1319.36L443.642 1326.94L511.279 1306.53H513.611H515.361C515.361 1306.53 517.11 1306.53 518.276 1307.11C519.442 1307.11 524.69 1308.86 529.938 1302.45L533.436 1301.28C533.436 1301.28 539.267 1305.36 540.433 1300.12H541.599C541.599 1300.12 542.766 1301.28 545.098 1300.7L546.264 1303.03C546.264 1303.03 547.43 1304.2 548.596 1304.2C549.179 1304.2 549.762 1303.03 549.762 1301.87V1300.12V1298.37L554.427 1296.03L555.593 1298.95C555.593 1298.95 556.759 1300.12 557.926 1300.12C558.509 1300.12 559.092 1298.95 559.092 1297.78L557.926 1294.87L599.908 1277.38L601.657 1280.87L607.488 1278.54L609.82 1284.37L615.651 1275.04L619.149 1273.29L620.315 1275.63L622.648 1271.55L623.814 1273.88L626.146 1269.8L705.445 1235.98L739.264 1315.28L738.098 1319.94L740.43 1318.77L739.264 1323.44L741.596 1322.27L743.346 1325.77L741.013 1336.27L746.844 1333.94L749.176 1339.77L752.675 1338.02L770.167 1380L767.252 1381.16C767.252 1381.16 766.086 1382.33 766.086 1383.5C766.086 1384.08 767.252 1384.66 768.418 1384.66L771.334 1383.5L773.666 1388.16V1390.49L771.334 1391.08C770.751 1391.08 770.167 1392.24 770.167 1393.41C770.167 1393.99 771.334 1394.58 772.5 1394.58L774.832 1393.41L778.331 1395.16V1396.32C775.998 1400.99 782.995 1402.16 782.995 1402.16L784.744 1405.07C784.161 1413.23 788.826 1416.15 789.992 1416.15C791.158 1416.15 792.325 1417.32 792.325 1417.32L792.908 1418.48L794.074 1420.23L828.476 1482.04L823.811 1467.46L889.116 1568.92C889.116 1568.92 892.615 1572.42 896.696 1573L899.612 1574.75L901.361 1578.83H900.195V1580L896.113 1581.74L892.032 1580.58L893.198 1583.49V1584.66L894.947 1587.58L896.696 1584.08L900.778 1582.33V1583.49H901.944L903.693 1587.58L902.527 1591.66L905.442 1590.49H906.609L909.524 1588.74L906.026 1586.99L904.276 1582.91H905.442V1581.74L909.524 1580L913.606 1581.16L912.439 1578.25V1577.08L910.69 1574.16L908.941 1577.66L904.859 1579.41V1578.25H903.693L901.944 1574.16L903.11 1570.08C904.859 1567.17 904.859 1563.09 904.859 1563.09L877.455 1445.3L885.035 1458.71L864.627 1391.08V1388.74V1387C864.627 1387 864.627 1385.25 865.21 1384.08C865.21 1382.91 866.959 1377.67 860.545 1372.42L859.379 1368.92C859.379 1368.92 863.461 1363.09 858.213 1361.92V1360.76C858.213 1360.76 859.379 1359.59 858.796 1357.26L861.128 1356.09C861.128 1356.09 862.294 1354.93 862.294 1353.76C862.294 1353.18 861.128 1352.59 859.962 1352.59H858.213H856.464L854.131 1347.93L857.047 1346.76C857.047 1346.76 858.213 1345.6 858.213 1344.43C858.213 1343.85 857.047 1343.26 855.88 1343.26L852.965 1344.43L835.473 1302.45L838.971 1300.7L836.639 1294.87L842.47 1292.54L833.14 1286.71L831.391 1283.21L833.723 1282.04L829.642 1279.71L831.974 1278.54L827.893 1276.21L793.491 1196.33L873.373 1162.51L878.038 1163.68L876.871 1161.34L881.536 1161.93L880.37 1159.59L883.868 1157.84L894.364 1160.18L892.032 1154.35L897.862 1152.01L896.113 1148.52L938.095 1131.02L939.261 1133.94C939.261 1133.94 940.427 1135.1 941.593 1135.1C942.177 1135.1 942.76 1133.94 942.76 1132.77L941.593 1129.86L946.258 1127.52H948.59L949.174 1129.86C949.174 1130.44 950.34 1131.02 951.506 1131.02C952.089 1131.02 952.672 1129.86 952.672 1128.69L951.506 1126.36L953.255 1122.86H954.421C959.086 1125.19 960.252 1118.19 960.252 1118.19L963.168 1116.45C971.331 1117.03 974.246 1112.36 974.246 1111.2C974.246 1110.03 975.412 1108.87 975.412 1108.87L977.162 1108.28L978.911 1107.12L1040.72 1072.71L1026.14 1077.38L1127.6 1012.07C1127.6 1012.07 1130.51 1009.16 1131.68 1005.66L1133.43 1002.16ZM563.173 771.261L662.297 963.095L659.382 964.261L627.312 901.871C606.321 861.056 562.007 771.844 562.007 771.844H563.173V771.261ZM627.312 977.672L557.926 773.593H559.675L562.59 780.007C563.756 783.506 566.672 791.086 570.17 800.415L630.228 977.089L627.312 978.255V977.672ZM650.053 1012.66C647.137 1013.82 642.473 1010.32 639.557 1003.91C637.225 998.08 637.225 991.666 640.723 990.5C643.639 989.334 648.303 992.832 651.219 999.246C654.134 1005.66 653.551 1011.49 650.053 1012.66ZM671.627 1003.91C668.711 1005.08 664.047 1001.58 661.131 995.165C658.216 988.751 658.799 982.92 662.297 981.754C665.213 980.588 669.877 984.086 672.793 990.5C675.125 996.331 675.125 1002.74 671.627 1003.91Z" fill="#00C852"/>
  </g>
</svg>