<?xml version="1.0" encoding="UTF-8"?>
<svg viewBox="0 0 1104 94" xmlns="http://www.w3.org/2000/svg">
  <defs>
    <linearGradient id="guadalajaraGradient" x1="0%" y1="0%" x2="100%" y2="0%">
      <stop offset="0%" style="stop-color:#FF7300;stop-opacity:1" />
      <stop offset="50%" style="stop-color:#FE4CD5;stop-opacity:1" />
      <stop offset="100%" style="stop-color:#06BAB9;stop-opacity:1" />
    </linearGradient>
  </defs>
  <path d="M93.8848 31.333H62.5898C79.9556 31.3331 93.8848 45.4609 93.8848 62.667V94H31.2949C13.9292 94 0.000246379 79.8729 0 62.667V31.333C0.000140677 13.9459 14.11 0 31.2949 0H93.8848V31.333ZM194.824 94H163.529V62.666C163.529 80.0533 149.419 94 132.234 94C114.869 94 100.939 79.8721 100.939 62.666V0H194.824V94ZM264.648 0C282.014 0 295.943 14.127 295.943 31.333V94C278.577 94 264.648 79.8721 264.648 62.666V94H233.354C215.988 93.9998 202.059 79.872 202.059 62.666C202.059 45.4602 216.169 31.3332 233.354 31.333H202.059C202.059 13.946 216.169 0.000160881 233.354 0H264.648ZM365.588 0C382.954 0 396.883 14.127 396.883 31.333V62.666C396.883 80.0533 382.773 94 365.588 94H302.999V0H365.588ZM466.709 0C484.075 0.000173992 498.004 14.1271 498.004 31.333V94C480.638 94 466.709 79.8721 466.709 62.666V94H435.414C418.048 94 404.119 79.8721 404.119 62.666C404.119 45.4601 418.229 31.333 435.414 31.333H404.119C404.119 13.9459 418.229 0 435.414 0H466.709ZM567.647 31.333H598.941V94H536.353C518.987 94 505.058 79.8721 505.058 62.666V0H567.647V31.333ZM668.587 0C685.953 0.000210671 699.881 14.1271 699.881 31.333V94C682.515 93.9998 668.587 79.872 668.587 62.666V94H637.292C619.926 94 605.997 79.8721 605.997 62.666C605.997 45.4601 620.107 31.333 637.292 31.333H605.997C605.997 13.9459 620.107 0 637.292 0H668.587ZM801.002 62.666C801.002 80.0533 786.892 94 769.707 94H707.117V31.333H738.412V0H801.002V62.666ZM870.646 0C888.011 0 901.94 14.127 901.94 31.333V94C884.575 94 870.646 79.8721 870.646 62.666V94H839.351C821.985 93.9999 808.056 79.8721 808.056 62.666C808.056 45.4602 822.166 31.3332 839.351 31.333H808.056C808.056 13.9459 822.166 0.000146897 839.351 0H870.646ZM971.585 0C988.951 1.20644e-05 1002.88 14.127 1002.88 31.333C1002.88 48.5391 988.77 62.666 971.585 62.666H1002.88V94H971.585C954.219 94 940.29 79.8721 940.29 62.666V94H908.995V0H971.585ZM1072.71 0C1090.07 0 1104 14.127 1104 31.333V94C1086.63 93.9999 1072.71 79.8721 1072.71 62.666V94H1041.41C1024.05 94 1010.12 79.8721 1010.12 62.666C1010.12 45.4601 1024.23 31.333 1041.41 31.333H1010.12C1010.12 13.9459 1024.23 0 1041.41 0H1072.71Z" fill="url(#guadalajaraGradient)"/>
</svg>